<?xml version="1.0" standalone="no"?>
<!DOCTYPE svg PUBLIC "-//W3C//DTD SVG 20010904//EN"
 "http://www.w3.org/TR/2001/REC-SVG-20010904/DTD/svg10.dtd">
<svg version="1.0" xmlns="http://www.w3.org/2000/svg"
 width="280.000000pt" height="223.000000pt" viewBox="0 0 280.000000 223.000000"
 preserveAspectRatio="xMidYMid meet">
<metadata>
Created by potrace 1.15, written by Peter Selinger 2001-2017
</metadata>
<g transform="translate(0.000000,223.000000) scale(0.100000,-0.100000)"
fill="#000000" stroke="none">
<path d="M10 2156 c0 -22 5 -24 60 -28 45 -3 66 -10 83 -26 l22 -23 3 -679 c3
-765 7 -725 -71 -761 -23 -10 -55 -19 -70 -19 -24 0 -28 -4 -25 -22 3 -23 3
-23 221 -26 l217 -2 0 24 c0 19 -6 24 -37 30 -21 3 -53 15 -71 26 -63 38 -62
33 -62 637 0 318 4 543 9 538 5 -6 50 -118 100 -250 50 -132 107 -280 126
-330 53 -139 172 -448 218 -568 56 -144 66 -143 120 13 69 200 142 413 277
810 73 212 136 392 141 400 15 24 7 -1179 -8 -1212 -17 -37 -52 -58 -112 -65
-46 -5 -52 -9 -49 -27 3 -21 7 -21 276 -24 l272 -2 0 25 c0 22 -5 25 -32 25
-18 0 -52 9 -75 19 -34 16 -44 27 -53 58 -8 27 -10 238 -8 711 l3 674 27 23
c17 14 46 25 82 29 46 6 56 11 56 27 0 18 -9 19 -194 19 l-194 0 -20 -57 c-41
-117 -173 -495 -252 -718 -45 -126 -95 -270 -112 -320 -17 -49 -33 -93 -37
-97 -4 -4 -19 27 -35 70 -15 42 -45 124 -66 182 -51 136 -215 584 -311 848
l-33 92 -193 0 -193 0 0 -24z m375 -13 c4 -10 27 -72 50 -138 24 -66 74 -201
110 -300 37 -99 89 -241 116 -315 150 -415 154 -425 177 -428 12 -2 22 -2 22
1 0 2 23 69 51 148 28 79 73 207 99 284 27 77 83 237 125 355 42 118 91 258
109 310 l33 95 154 2 c96 1 141 -2 120 -7 -18 -4 -45 -20 -60 -34 l-26 -26 -3
-690 c-3 -760 -4 -743 58 -775 17 -9 50 -20 73 -25 27 -5 -51 -8 -213 -8 -229
0 -250 1 -201 13 70 17 98 46 111 115 6 35 9 273 8 635 -3 571 -3 580 -23 580
-17 0 -40 -58 -168 -435 -188 -547 -240 -701 -281 -819 l-33 -94 -41 104 c-22
57 -64 165 -92 239 -28 74 -76 198 -105 275 -30 77 -97 252 -150 390 -53 137
-100 254 -105 259 -5 5 -16 6 -24 3 -14 -6 -16 -67 -16 -567 0 -597 0 -601 49
-644 11 -10 45 -27 73 -37 l53 -18 -200 0 c-182 0 -196 2 -157 14 58 18 89 39
107 75 14 26 15 114 13 720 l-3 690 -26 26 c-20 20 -42 28 -85 34 -43 5 -11 8
117 9 160 1 178 -1 184 -16z"/>
<path d="M1810 1127 l0 -632 -25 -120 c-36 -171 -30 -260 21 -316 26 -29 78
-25 103 7 49 63 51 156 7 349 -14 61 -26 134 -26 164 l0 54 44 -41 c56 -52
111 -68 183 -53 82 16 176 90 229 179 10 18 21 32 25 32 4 0 10 -22 14 -48 13
-93 68 -159 142 -169 54 -7 107 12 155 55 44 39 63 71 84 141 20 65 18 91 -5
91 -15 0 -22 -11 -30 -51 -15 -67 -26 -86 -61 -104 -49 -26 -88 7 -114 94 -14
47 -16 124 -16 528 l0 473 -85 0 -85 0 0 -447 0 -448 -38 -50 c-20 -27 -57
-63 -80 -80 -81 -56 -182 -32 -231 56 -34 60 -41 155 -41 572 l0 397 -85 0
-85 0 0 -633z m150 221 c0 -216 5 -424 10 -463 33 -230 250 -275 385 -79 l35
50 0 442 0 442 65 0 64 0 3 -492 c3 -545 2 -536 68 -592 38 -32 68 -33 105 -4
27 21 27 21 17 1 -19 -34 -80 -81 -122 -94 -89 -27 -168 37 -185 149 -7 46
-20 72 -36 72 -4 0 -26 -26 -48 -58 -45 -66 -95 -113 -149 -140 -90 -45 -160
-35 -228 34 -63 63 -74 59 -74 -23 0 -65 7 -107 45 -286 20 -91 14 -166 -16
-216 -41 -68 -105 -17 -116 91 -3 38 3 89 23 178 l28 125 4 628 3 627 59 0 60
0 0 -392z"/>
</g>
</svg>
